<svg version="1.1" id="Layer_1" xmlns="http://www.w3.org/2000/svg" xmlns:xlink="http://www.w3.org/1999/xlink" x="0px" y="0px"
	 width="100%" viewBox="0 0 1404 1648" enable-background="new 0 0 1404 1648" xml:space="preserve">
<path fill="#000000" opacity="1.000000" stroke="none" 
	d="
M695.000000,1649.000000 
	C463.333374,1649.000000 232.166748,1649.000000 1.000093,1649.000000 
	C1.000062,1099.666748 1.000062,550.333618 1.000031,1.000314 
	C468.999786,1.000209 936.999573,1.000209 1404.999512,1.000105 
	C1404.999756,550.333008 1404.999756,1099.666016 1404.999878,1648.999512 
	C1168.500000,1649.000000 932.000000,1649.000000 695.000000,1649.000000 
M704.648438,833.868958 
	C703.727478,834.565186 702.806519,835.261414 701.238953,836.242493 
	C699.493164,839.285339 696.570923,842.200989 696.225525,845.395325 
	C695.250854,854.410645 695.062378,863.539795 695.045105,872.624939 
	C694.950439,922.437866 695.181213,972.252075 694.891785,1022.063538 
	C694.802551,1037.417480 697.587524,1053.136597 690.333679,1068.154785 
	C689.850952,1068.755737 689.368164,1069.356689 688.241882,1070.240356 
	C687.220337,1071.814941 686.555603,1073.951294 685.114990,1074.865845 
	C679.135376,1078.662598 673.962402,1082.543335 665.481506,1082.409058 
	C629.334351,1081.836182 593.163086,1082.777832 556.410339,1083.131348 
	C555.940491,1083.476440 555.470642,1083.821533 554.257751,1084.020874 
	C553.505371,1084.069458 552.753052,1084.118042 551.261414,1084.255859 
	C547.688171,1085.888062 544.114868,1087.520142 540.242676,1089.237793 
	C540.242676,1089.237793 540.154419,1089.535889 539.613586,1089.889648 
	C538.037537,1090.912231 536.461487,1091.934937 534.246216,1093.236084 
	C532.653137,1095.127441 531.203369,1097.165649 529.441650,1098.883911 
	C522.517395,1105.637329 517.892700,1113.667725 516.417114,1123.222778 
	C514.533508,1135.420166 513.667419,1147.536011 517.828430,1159.665527 
	C522.895996,1174.437744 533.370056,1185.433594 542.779724,1197.177368 
	C549.144775,1205.121216 556.175537,1212.527954 562.702576,1220.346802 
	C571.609375,1231.016113 580.264954,1241.894775 589.130859,1252.598633 
	C597.912720,1263.201050 606.930786,1273.608887 615.648071,1284.263428 
	C626.613770,1297.666260 637.312439,1311.287231 648.255249,1324.709106 
	C655.193359,1333.218872 662.434082,1341.481323 669.418030,1349.954468 
	C679.819885,1362.574097 690.093445,1375.299316 700.462158,1387.946411 
	C708.559631,1397.823120 716.731628,1407.638794 724.847046,1417.500977 
	C733.784180,1428.361694 742.699402,1439.240356 751.615051,1450.118652 
	C758.765869,1458.843750 765.616577,1467.836304 773.129456,1476.237061 
	C780.262634,1484.213379 787.814026,1491.866943 795.684082,1499.117065 
	C802.152771,1505.076172 810.514709,1507.149658 818.999817,1509.248291 
	C830.191772,1512.016357 840.947815,1511.016235 852.056641,1509.253296 
	C858.353516,1508.253906 862.628296,1504.256226 867.731567,1501.541992 
	C873.084412,1498.694946 878.533020,1495.521362 882.861938,1491.367310 
	C890.467163,1484.069458 897.350525,1476.003784 904.349365,1468.094238 
	C910.328064,1461.337646 916.112122,1454.404907 921.862183,1447.450684 
	C932.283142,1434.847534 942.550171,1422.116699 953.002991,1409.540161 
	C962.121094,1398.569458 971.468140,1387.789185 980.600769,1376.830566 
	C989.817383,1365.771118 998.841064,1354.551025 1008.049927,1343.485107 
	C1015.498535,1334.534546 1023.185669,1325.781982 1030.607056,1316.809204 
	C1040.970703,1304.279297 1051.149902,1291.597046 1061.474243,1279.034424 
	C1071.141602,1267.271118 1080.939941,1255.615723 1090.598511,1243.845337 
	C1100.762329,1231.459106 1110.742554,1218.921631 1120.965942,1206.585205 
	C1128.713135,1197.236694 1137.335083,1188.551880 1144.475220,1178.774170 
	C1158.881348,1159.046387 1162.754883,1137.129272 1153.793091,1114.097290 
	C1148.877319,1101.464233 1139.972534,1091.956177 1126.743774,1086.818359 
	C1118.194702,1083.498047 1109.463989,1082.090698 1100.481323,1082.049316 
	C1071.651489,1081.916626 1042.818726,1082.179321 1013.992065,1081.851440 
	C1008.093628,1081.784546 1001.812439,1080.788086 996.406128,1078.540283 
	C980.413635,1071.890991 975.161377,1058.040039 975.095947,1042.093994 
	C974.854492,983.267639 974.900452,924.439392 975.059448,865.612488 
	C975.108459,847.478760 973.451538,829.665100 969.098694,812.006775 
	C964.513611,793.405945 956.009766,776.746338 944.797791,761.534912 
	C936.581421,750.387573 926.632080,740.793030 915.257751,732.573669 
	C897.389343,719.661743 878.497925,710.555298 855.735474,711.941711 
	C847.712219,712.430420 840.451538,719.193359 839.023804,728.317200 
	C838.243469,733.303955 844.877808,742.239685 851.024414,743.994019 
	C858.623535,746.162781 866.466797,747.560425 873.933105,750.091980 
	C888.671936,755.089294 900.472961,764.248901 910.754089,775.992798 
	C919.686951,786.196716 926.381897,797.701355 931.665588,809.824829 
	C938.557434,825.638428 940.211060,842.830139 940.933960,859.975403 
	C941.125549,864.519287 940.269104,869.099426 940.310059,873.659241 
	C940.405762,884.315979 940.942566,894.970032 940.966187,905.625916 
	C941.052002,944.288452 941.033264,982.951416 940.956055,1021.614014 
	C940.946899,1026.208008 940.025146,1030.803833 940.071289,1035.393311 
	C940.147522,1042.988892 940.576172,1050.585693 941.042786,1058.170410 
	C941.242676,1061.418579 941.489380,1064.766724 942.432556,1067.849976 
	C950.377563,1093.822266 968.687439,1109.069214 994.202637,1115.766479 
	C1002.477600,1117.938477 1011.476624,1117.829956 1020.152222,1117.908203 
	C1047.647095,1118.156372 1075.148560,1117.774536 1102.641479,1118.119263 
	C1112.603271,1118.244141 1120.047607,1121.908081 1122.195190,1133.195312 
	C1123.502197,1140.064453 1121.833374,1145.350830 1118.541138,1151.510986 
	C1110.674072,1166.231201 1099.352905,1178.058960 1088.872314,1190.642822 
	C1082.588867,1198.187256 1076.326538,1205.750366 1070.143799,1213.377319 
	C1063.459106,1221.623657 1057.014648,1230.067871 1050.216553,1238.218262 
	C1042.120239,1247.924927 1033.662598,1257.329834 1025.538452,1267.013916 
	C1016.179260,1278.169922 1007.034119,1289.505371 997.754272,1300.728271 
	C993.590027,1305.764282 989.256775,1310.661133 985.121704,1315.720459 
	C980.187805,1321.757202 975.455383,1327.958984 970.496643,1333.974609 
	C967.654907,1337.422119 964.463623,1340.579468 961.565125,1343.982788 
	C958.771790,1347.262695 956.185608,1350.717896 953.447327,1354.045898 
	C951.032532,1356.980835 948.467773,1359.793701 946.087341,1362.755249 
	C942.545593,1367.161865 939.125122,1371.665527 935.620972,1376.102417 
	C931.759460,1380.991943 927.825684,1385.824829 923.991577,1390.735596 
	C921.049988,1394.503540 918.392883,1398.507080 915.287537,1402.130127 
	C911.125183,1406.986450 906.534668,1411.474609 902.345154,1416.308960 
	C897.787231,1421.568481 893.507751,1427.068359 889.048889,1432.415161 
	C886.502075,1435.468872 883.789917,1438.384644 881.240540,1441.436279 
	C876.780151,1446.775513 872.624329,1452.391113 867.900208,1457.481934 
	C863.201721,1462.545044 857.960815,1467.104736 852.208618,1471.998047 
	C848.806030,1473.387573 845.403442,1474.777100 841.111267,1476.020508 
	C838.354614,1476.333374 835.605347,1476.772583 832.839844,1476.932617 
	C827.277588,1477.254272 821.951904,1476.593140 817.746094,1472.370728 
	C813.477600,1468.085083 809.207397,1463.800659 804.984070,1459.470703 
	C802.621582,1457.048584 800.234436,1454.633789 798.071594,1452.038086 
	C795.378296,1448.805786 793.028442,1445.285034 790.300293,1442.084717 
	C787.766113,1439.112061 784.721741,1436.564819 782.273254,1433.530640 
	C778.224182,1428.513306 774.631958,1423.125488 770.549133,1418.137817 
	C767.031494,1413.840332 762.994141,1409.972290 759.374207,1405.753418 
	C754.528076,1400.105469 749.845825,1394.315918 745.127686,1388.559082 
	C743.049500,1386.023315 741.044739,1383.427124 739.027466,1380.842041 
	C736.527771,1377.638672 734.159302,1374.325317 731.529480,1371.233398 
	C729.215942,1368.513306 726.411072,1366.198975 724.197144,1363.408813 
	C720.548889,1358.811035 717.385315,1353.824463 713.675659,1349.280762 
	C710.168457,1344.984985 706.104614,1341.148315 702.496826,1336.929077 
	C697.879578,1331.529297 693.472107,1325.949951 688.977539,1320.445190 
	C686.996643,1318.019043 684.940918,1315.648193 683.065979,1313.142456 
	C679.838074,1308.828613 676.896545,1304.290771 673.520264,1300.100342 
	C669.304016,1294.867432 664.683716,1289.961914 660.397888,1284.782593 
	C656.597412,1280.189941 653.065369,1275.375977 649.320862,1270.735596 
	C646.638428,1267.411499 643.747620,1264.255981 641.046692,1260.946167 
	C638.169128,1257.420166 635.490356,1253.730103 632.567627,1250.243286 
	C629.822876,1246.968628 626.758057,1243.960693 624.040344,1240.665283 
	C619.968811,1235.728271 616.116943,1230.610718 612.098816,1225.628662 
	C608.096863,1220.666870 604.023682,1215.761963 599.945740,1210.862183 
	C597.522095,1207.949951 595.059448,1205.068726 592.557800,1202.223389 
	C590.427856,1199.800781 588.112915,1197.535034 586.066284,1195.046509 
	C582.965698,1191.276489 580.144653,1187.272949 576.981079,1183.559204 
	C574.562317,1180.719727 571.591736,1178.343140 569.235962,1175.458984 
	C565.964539,1171.453857 563.381042,1166.849487 559.884949,1163.073975 
	C554.638794,1157.408691 550.464844,1151.230469 548.376465,1143.798096 
	C546.329346,1136.512451 549.769653,1130.081787 552.763428,1124.009155 
	C553.846008,1121.813110 558.128418,1120.732300 561.154297,1120.061890 
	C566.057190,1118.975708 571.116089,1118.231812 576.130615,1118.087280 
	C586.284973,1117.794434 596.454834,1118.102417 606.616150,1117.978882 
	C628.369385,1117.714355 650.122009,1117.374634 671.872620,1116.950439 
	C674.786194,1116.893677 677.816833,1116.570190 680.568787,1115.677856 
	C688.830566,1112.999023 696.302185,1108.643188 703.540283,1103.918335 
	C711.540039,1098.696411 717.248596,1091.282837 721.867432,1083.163940 
	C727.965942,1072.444092 729.659485,1060.313232 729.841248,1048.342041 
	C730.560852,1000.938416 730.805908,953.525818 730.934875,906.115723 
	C730.990417,885.716003 730.456177,865.310852 729.865356,844.917542 
	C729.778442,841.914612 727.888916,838.963989 726.907837,835.470093 
	C726.611572,835.368896 726.315308,835.267761 725.445129,834.930847 
	C724.668213,834.273071 723.891296,833.615295 722.813049,832.299133 
	C720.875366,831.588318 718.937683,830.877502 716.149780,829.693176 
	C715.250854,829.528687 714.351868,829.364197 712.981812,829.551331 
	C712.654602,829.756409 712.327393,829.961548 711.318665,830.021118 
	C710.531616,830.309265 709.744568,830.597473 708.385315,831.112122 
	C707.436279,831.792664 706.487183,832.473145 705.243896,833.235718 
	C705.243896,833.235718 705.157043,833.528442 704.648438,833.868958 
M864.007935,425.511322 
	C858.618958,419.120941 853.201416,412.754364 847.848267,406.334137 
	C841.304932,398.486664 834.752563,390.645355 828.319092,382.708160 
	C820.402344,372.941132 812.685303,363.011658 804.730652,353.276093 
	C797.678284,344.644897 790.360535,336.231079 783.264709,327.634796 
	C772.853638,315.022156 762.582764,302.293793 752.162476,289.688843 
	C744.954712,280.970062 737.488098,272.464172 730.328979,263.706390 
	C719.263855,250.170425 708.454407,236.425156 697.362976,222.911072 
	C688.523865,212.141373 679.480164,201.537735 670.428223,190.945084 
	C659.992676,178.733414 649.803162,166.284668 638.869873,154.531357 
	C621.451965,135.807129 599.061707,132.954773 575.497070,137.470322 
	C562.400818,139.979874 550.955566,147.055939 541.707947,156.894241 
	C533.728699,165.383255 526.002502,174.130737 518.527649,183.067749 
	C510.675323,192.456024 503.359436,202.290863 495.617371,211.774048 
	C487.120789,222.181503 478.460236,232.457016 469.751892,242.688538 
	C467.131775,245.766937 463.835907,248.286346 461.332001,251.444351 
	C455.037018,259.383728 449.214203,267.700836 442.839081,275.572510 
	C434.234528,286.196869 425.221497,296.489258 416.509216,307.027802 
	C406.043030,319.687988 395.725311,332.470856 385.312286,345.175232 
	C376.034882,356.494080 366.716125,367.779114 357.413910,379.077606 
	C351.172455,386.658447 345.046082,394.338013 338.656677,401.792053 
	C329.414398,412.574280 319.845978,423.078186 310.662445,433.909210 
	C299.121124,447.521118 287.815399,461.333008 276.431366,475.077942 
	C264.904724,488.995117 258.735443,505.009033 259.134949,523.073364 
	C259.376160,533.982910 261.530640,544.674194 267.986633,553.993042 
	C274.265594,563.056396 282.170135,569.928406 292.492432,574.252258 
	C304.782501,579.400391 317.818420,578.699524 330.595001,579.856812 
	C336.278778,580.371582 342.105927,579.008301 347.863281,579.057190 
	C370.789276,579.251831 393.715454,579.576477 416.636139,580.092468 
	C420.294159,580.174744 424.301178,580.735046 427.502472,582.350952 
	C441.191040,589.260315 446.922333,601.240723 446.951569,616.030945 
	C447.068787,675.359070 446.899750,734.687805 447.089966,794.015564 
	C447.125275,805.032349 447.904480,816.091553 449.093170,827.049561 
	C450.949493,844.162537 456.798859,860.264709 464.985687,875.186707 
	C474.926270,893.305237 486.820984,910.268494 503.592804,922.939392 
	C511.319458,928.776611 519.433167,934.261108 527.928284,938.881714 
	C538.874329,944.835327 550.715027,948.041443 563.439087,948.173523 
	C570.701050,948.248962 579.606445,943.649841 581.971130,936.970337 
	C585.353088,927.417053 576.852905,914.400818 566.180786,913.035156 
	C557.939026,911.980469 550.106506,909.835510 542.686401,905.990051 
	C528.034302,898.396667 516.172913,887.507324 506.299652,874.554199 
	C489.166779,852.076782 482.489624,825.803040 482.193237,798.218933 
	C481.561279,739.397339 482.034546,680.564148 481.953827,621.735901 
	C481.944336,614.808594 481.803528,607.811829 480.844177,600.970520 
	C479.039032,588.097595 473.921722,576.440857 465.687103,566.343689 
	C457.929749,556.831665 448.017487,549.649231 436.121552,547.304749 
	C424.124512,544.940552 411.659973,544.326416 399.381866,544.136597 
	C371.390900,543.703918 343.380676,543.597290 315.394073,544.153015 
	C298.949585,544.479492 285.699280,525.741028 294.855133,510.831696 
	C300.149323,502.210724 306.719086,494.324554 313.148621,486.462494 
	C320.060150,478.011017 327.642395,470.110687 334.638947,461.725403 
	C344.903656,449.423431 354.842651,436.850281 365.043060,424.493927 
	C373.807556,413.876953 382.840790,403.481476 391.579895,392.844055 
	C402.993652,378.950928 414.097748,364.802094 425.591370,350.976288 
	C435.605072,338.930634 446.149506,327.325745 456.145111,315.265564 
	C470.856995,297.514862 485.158722,279.424103 499.882599,261.683563 
	C511.496521,247.690186 523.409912,233.942566 535.325562,220.203140 
	C547.325806,206.366196 558.916504,192.106827 571.741333,179.070129 
	C585.956970,164.619690 602.465088,165.847778 615.541321,181.019806 
	C622.300720,188.862503 629.174927,196.606262 635.927429,204.454865 
	C645.866089,216.006866 655.859863,227.514709 665.612854,239.222366 
	C675.867981,251.532806 685.764099,264.142151 696.008057,276.462128 
	C705.855225,288.304932 716.153381,299.776184 725.881958,311.713440 
	C739.888123,328.899353 753.456421,346.441620 767.412109,363.669373 
	C775.098633,373.158112 783.340393,382.195801 791.075562,391.646667 
	C805.152588,408.846252 818.936646,426.285858 833.031311,443.470795 
	C849.228210,463.219116 865.616943,482.810181 881.947998,502.448303 
	C889.059570,511.000000 891.917236,520.607239 886.815552,530.842651 
	C882.473450,539.554199 879.121765,544.192200 867.900635,544.099426 
	C834.405701,543.822632 800.906921,543.946289 767.410034,544.046936 
	C760.982178,544.066223 754.440125,544.040955 748.151184,545.161438 
	C729.920532,548.409668 716.119263,558.609863 706.434204,574.166077 
	C699.743286,584.912964 695.799988,596.543457 695.887634,609.563965 
	C696.006287,627.174133 695.144470,644.788513 695.043518,662.403015 
	C694.882019,690.566406 694.950928,718.731506 695.035278,746.895569 
	C695.056213,753.904541 700.685608,760.945312 706.640198,761.987732 
	C718.438232,764.053162 729.929443,754.268188 730.012146,742.214600 
	C730.314697,698.123657 730.540833,654.031494 731.080688,609.943237 
	C731.232178,597.577698 739.651062,583.506531 753.881531,580.645020 
	C758.350525,579.746338 762.954773,579.088196 767.500061,579.070435 
	C800.830017,578.939819 834.160950,579.038391 867.491211,578.955322 
	C872.078003,578.943909 876.714233,578.650940 881.239746,577.933899 
	C895.040466,575.747009 906.052734,568.650818 913.880371,557.258789 
	C927.819397,536.972534 928.690063,503.387604 912.168335,482.842560 
	C896.681519,463.584564 880.437500,444.935547 864.007935,425.511322 
z"/>
<path fill="#6BA4FC" opacity="1.000000" stroke="none" 
	d="
M552.000671,1084.166748 
	C552.753052,1084.118042 553.505371,1084.069458 554.714355,1084.339355 
	C555.780823,1084.160767 556.390747,1083.663696 557.000610,1083.166626 
	C593.163086,1082.777832 629.334351,1081.836182 665.481506,1082.409058 
	C673.962402,1082.543335 679.135376,1078.662598 685.114990,1074.865845 
	C686.555603,1073.951294 687.220337,1071.814941 688.869934,1070.093506 
	C689.960938,1069.283325 690.423950,1068.619751 690.886963,1067.956299 
	C697.587524,1053.136597 694.802551,1037.417480 694.891785,1022.063538 
	C695.181213,972.252075 694.950439,922.437866 695.045105,872.624939 
	C695.062378,863.539795 695.250854,854.410645 696.225525,845.395325 
	C696.570923,842.200989 699.493164,839.285339 701.945129,836.100342 
	C703.486511,835.148193 704.321777,834.338318 705.157043,833.528442 
	C705.157043,833.528442 705.243896,833.235718 705.748291,833.340942 
	C707.154297,832.592712 708.055908,831.739136 708.957520,830.885620 
	C709.744568,830.597473 710.531616,830.309265 711.763428,830.344971 
	C712.590698,830.774719 712.973206,830.880493 713.355713,830.986267 
	C713.388123,830.390747 713.420532,829.795227 713.452942,829.199707 
	C714.351868,829.364197 715.250854,829.528687 716.704529,830.245544 
	C719.210938,831.517761 721.162659,832.237671 723.114380,832.957520 
	C723.891296,833.615295 724.668213,834.273071 725.848450,835.204102 
	C726.422241,835.674622 726.616089,835.845154 726.833374,835.989136 
	C727.888916,838.963989 729.778442,841.914612 729.865356,844.917542 
	C730.456177,865.310852 730.990417,885.716003 730.934875,906.115723 
	C730.805908,953.525818 730.560852,1000.938416 729.841248,1048.342041 
	C729.659485,1060.313232 727.965942,1072.444092 721.867432,1083.163940 
	C717.248596,1091.282837 711.540039,1098.696411 703.540283,1103.918335 
	C696.302185,1108.643188 688.830566,1112.999023 680.568787,1115.677856 
	C677.816833,1116.570190 674.786194,1116.893677 671.872620,1116.950439 
	C650.122009,1117.374634 628.369385,1117.714355 606.616150,1117.978882 
	C596.454834,1118.102417 586.284973,1117.794434 576.130615,1118.087280 
	C571.116089,1118.231812 566.057190,1118.975708 561.154297,1120.061890 
	C558.128418,1120.732300 553.846008,1121.813110 552.763428,1124.009155 
	C549.769653,1130.081787 546.329346,1136.512451 548.376465,1143.798096 
	C550.464844,1151.230469 554.638794,1157.408691 559.884949,1163.073975 
	C563.381042,1166.849487 565.964539,1171.453857 569.235962,1175.458984 
	C571.591736,1178.343140 574.562317,1180.719727 576.981079,1183.559204 
	C580.144653,1187.272949 582.965698,1191.276489 586.066284,1195.046509 
	C588.112915,1197.535034 590.427856,1199.800781 592.557800,1202.223389 
	C595.059448,1205.068726 597.522095,1207.949951 599.945740,1210.862183 
	C604.023682,1215.761963 608.096863,1220.666870 612.098816,1225.628662 
	C616.116943,1230.610718 619.968811,1235.728271 624.040344,1240.665283 
	C626.758057,1243.960693 629.822876,1246.968628 632.567627,1250.243286 
	C635.490356,1253.730103 638.169128,1257.420166 641.046692,1260.946167 
	C643.747620,1264.255981 646.638428,1267.411499 649.320862,1270.735596 
	C653.065369,1275.375977 656.597412,1280.189941 660.397888,1284.782593 
	C664.683716,1289.961914 669.304016,1294.867432 673.520264,1300.100342 
	C676.896545,1304.290771 679.838074,1308.828613 683.065979,1313.142456 
	C684.940918,1315.648193 686.996643,1318.019043 688.977539,1320.445190 
	C693.472107,1325.949951 697.879578,1331.529297 702.496826,1336.929077 
	C706.104614,1341.148315 710.168457,1344.984985 713.675659,1349.280762 
	C717.385315,1353.824463 720.548889,1358.811035 724.197144,1363.408813 
	C726.411072,1366.198975 729.215942,1368.513306 731.529480,1371.233398 
	C734.159302,1374.325317 736.527771,1377.638672 739.027466,1380.842041 
	C741.044739,1383.427124 743.049500,1386.023315 745.127686,1388.559082 
	C749.845825,1394.315918 754.528076,1400.105469 759.374207,1405.753418 
	C762.994141,1409.972290 767.031494,1413.840332 770.549133,1418.137817 
	C774.631958,1423.125488 778.224182,1428.513306 782.273254,1433.530640 
	C784.721741,1436.564819 787.766113,1439.112061 790.300293,1442.084717 
	C793.028442,1445.285034 795.378296,1448.805786 798.071594,1452.038086 
	C800.234436,1454.633789 802.621582,1457.048584 804.984070,1459.470703 
	C809.207397,1463.800659 813.477600,1468.085083 817.746094,1472.370728 
	C821.951904,1476.593140 827.277588,1477.254272 832.839844,1476.932617 
	C835.605347,1476.772583 838.354614,1476.333374 841.671021,1476.376221 
	C846.832764,1477.388062 850.784485,1476.604614 852.957886,1471.885254 
	C857.960815,1467.104736 863.201721,1462.545044 867.900208,1457.481934 
	C872.624329,1452.391113 876.780151,1446.775513 881.240540,1441.436279 
	C883.789917,1438.384644 886.502075,1435.468872 889.048889,1432.415161 
	C893.507751,1427.068359 897.787231,1421.568481 902.345154,1416.308960 
	C906.534668,1411.474609 911.125183,1406.986450 915.287537,1402.130127 
	C918.392883,1398.507080 921.049988,1394.503540 923.991577,1390.735596 
	C927.825684,1385.824829 931.759460,1380.991943 935.620972,1376.102417 
	C939.125122,1371.665527 942.545593,1367.161865 946.087341,1362.755249 
	C948.467773,1359.793701 951.032532,1356.980835 953.447327,1354.045898 
	C956.185608,1350.717896 958.771790,1347.262695 961.565125,1343.982788 
	C964.463623,1340.579468 967.654907,1337.422119 970.496643,1333.974609 
	C975.455383,1327.958984 980.187805,1321.757202 985.121704,1315.720459 
	C989.256775,1310.661133 993.590027,1305.764282 997.754272,1300.728271 
	C1007.034119,1289.505371 1016.179260,1278.169922 1025.538452,1267.013916 
	C1033.662598,1257.329834 1042.120239,1247.924927 1050.216553,1238.218262 
	C1057.014648,1230.067871 1063.459106,1221.623657 1070.143799,1213.377319 
	C1076.326538,1205.750366 1082.588867,1198.187256 1088.872314,1190.642822 
	C1099.352905,1178.058960 1110.674072,1166.231201 1118.541138,1151.510986 
	C1121.833374,1145.350830 1123.502197,1140.064453 1122.195190,1133.195312 
	C1120.047607,1121.908081 1112.603271,1118.244141 1102.641479,1118.119263 
	C1075.148560,1117.774536 1047.647095,1118.156372 1020.152222,1117.908203 
	C1011.476624,1117.829956 1002.477600,1117.938477 994.202637,1115.766479 
	C968.687439,1109.069214 950.377563,1093.822266 942.432556,1067.849976 
	C941.489380,1064.766724 941.242676,1061.418579 941.042786,1058.170410 
	C940.576172,1050.585693 940.147522,1042.988892 940.071289,1035.393311 
	C940.025146,1030.803833 940.946899,1026.208008 940.956055,1021.614014 
	C941.033264,982.951416 941.052002,944.288452 940.966187,905.625916 
	C940.942566,894.970032 940.405762,884.315979 940.310059,873.659241 
	C940.269104,869.099426 941.125549,864.519287 940.933960,859.975403 
	C940.211060,842.830139 938.557434,825.638428 931.665588,809.824829 
	C926.381897,797.701355 919.686951,786.196716 910.754089,775.992798 
	C900.472961,764.248901 888.671936,755.089294 873.933105,750.091980 
	C866.466797,747.560425 858.623535,746.162781 851.024414,743.994019 
	C844.877808,742.239685 838.243469,733.303955 839.023804,728.317200 
	C840.451538,719.193359 847.712219,712.430420 855.735474,711.941711 
	C878.497925,710.555298 897.389343,719.661743 915.257751,732.573669 
	C926.632080,740.793030 936.581421,750.387573 944.797791,761.534912 
	C956.009766,776.746338 964.513611,793.405945 969.098694,812.006775 
	C973.451538,829.665100 975.108459,847.478760 975.059448,865.612488 
	C974.900452,924.439392 974.854492,983.267639 975.095947,1042.093994 
	C975.161377,1058.040039 980.413635,1071.890991 996.406128,1078.540283 
	C1001.812439,1080.788086 1008.093628,1081.784546 1013.992065,1081.851440 
	C1042.818726,1082.179321 1071.651489,1081.916626 1100.481323,1082.049316 
	C1109.463989,1082.090698 1118.194702,1083.498047 1126.743774,1086.818359 
	C1139.972534,1091.956177 1148.877319,1101.464233 1153.793091,1114.097290 
	C1162.754883,1137.129272 1158.881348,1159.046387 1144.475220,1178.774170 
	C1137.335083,1188.551880 1128.713135,1197.236694 1120.965942,1206.585205 
	C1110.742554,1218.921631 1100.762329,1231.459106 1090.598511,1243.845337 
	C1080.939941,1255.615723 1071.141602,1267.271118 1061.474243,1279.034424 
	C1051.149902,1291.597046 1040.970703,1304.279297 1030.607056,1316.809204 
	C1023.185669,1325.781982 1015.498535,1334.534546 1008.049927,1343.485107 
	C998.841064,1354.551025 989.817383,1365.771118 980.600769,1376.830566 
	C971.468140,1387.789185 962.121094,1398.569458 953.002991,1409.540161 
	C942.550171,1422.116699 932.283142,1434.847534 921.862183,1447.450684 
	C916.112122,1454.404907 910.328064,1461.337646 904.349365,1468.094238 
	C897.350525,1476.003784 890.467163,1484.069458 882.861938,1491.367310 
	C878.533020,1495.521362 873.084412,1498.694946 867.731567,1501.541992 
	C862.628296,1504.256226 858.353516,1508.253906 852.056641,1509.253296 
	C840.947815,1511.016235 830.191772,1512.016357 818.999817,1509.248291 
	C810.514709,1507.149658 802.152771,1505.076172 795.684082,1499.117065 
	C787.814026,1491.866943 780.262634,1484.213379 773.129456,1476.237061 
	C765.616577,1467.836304 758.765869,1458.843750 751.615051,1450.118652 
	C742.699402,1439.240356 733.784180,1428.361694 724.847046,1417.500977 
	C716.731628,1407.638794 708.559631,1397.823120 700.462158,1387.946411 
	C690.093445,1375.299316 679.819885,1362.574097 669.418030,1349.954468 
	C662.434082,1341.481323 655.193359,1333.218872 648.255249,1324.709106 
	C637.312439,1311.287231 626.613770,1297.666260 615.648071,1284.263428 
	C606.930786,1273.608887 597.912720,1263.201050 589.130859,1252.598633 
	C580.264954,1241.894775 571.609375,1231.016113 562.702576,1220.346802 
	C556.175537,1212.527954 549.144775,1205.121216 542.779724,1197.177368 
	C533.370056,1185.433594 522.895996,1174.437744 517.828430,1159.665527 
	C513.667419,1147.536011 514.533508,1135.420166 516.417114,1123.222778 
	C517.892700,1113.667725 522.517395,1105.637329 529.441650,1098.883911 
	C531.203369,1097.165649 532.653137,1095.127441 534.966064,1093.100708 
	C537.773743,1092.601807 540.660278,1093.278931 540.154419,1089.535889 
	C540.154419,1089.535889 540.242676,1089.237793 540.772095,1089.354126 
	C545.424805,1088.825806 549.910950,1088.913330 552.000671,1084.166748 
z"/>
<path fill="#6BA4FC" opacity="1.000000" stroke="none" 
	d="
M864.267334,425.764954 
	C880.437500,444.935547 896.681519,463.584564 912.168335,482.842560 
	C928.690063,503.387604 927.819397,536.972534 913.880371,557.258789 
	C906.052734,568.650818 895.040466,575.747009 881.239746,577.933899 
	C876.714233,578.650940 872.078003,578.943909 867.491211,578.955322 
	C834.160950,579.038391 800.830017,578.939819 767.500061,579.070435 
	C762.954773,579.088196 758.350525,579.746338 753.881531,580.645020 
	C739.651062,583.506531 731.232178,597.577698 731.080688,609.943237 
	C730.540833,654.031494 730.314697,698.123657 730.012146,742.214600 
	C729.929443,754.268188 718.438232,764.053162 706.640198,761.987732 
	C700.685608,760.945312 695.056213,753.904541 695.035278,746.895569 
	C694.950928,718.731506 694.882019,690.566406 695.043518,662.403015 
	C695.144470,644.788513 696.006287,627.174133 695.887634,609.563965 
	C695.799988,596.543457 699.743286,584.912964 706.434204,574.166077 
	C716.119263,558.609863 729.920532,548.409668 748.151184,545.161438 
	C754.440125,544.040955 760.982178,544.066223 767.410034,544.046936 
	C800.906921,543.946289 834.405701,543.822632 867.900635,544.099426 
	C879.121765,544.192200 882.473450,539.554199 886.815552,530.842651 
	C891.917236,520.607239 889.059570,511.000000 881.947998,502.448303 
	C865.616943,482.810181 849.228210,463.219116 833.031311,443.470795 
	C818.936646,426.285858 805.152588,408.846252 791.075562,391.646667 
	C783.340393,382.195801 775.098633,373.158112 767.412109,363.669373 
	C753.456421,346.441620 739.888123,328.899353 725.881958,311.713440 
	C716.153381,299.776184 705.855225,288.304932 696.008057,276.462128 
	C685.764099,264.142151 675.867981,251.532806 665.612854,239.222366 
	C655.859863,227.514709 645.866089,216.006866 635.927429,204.454865 
	C629.174927,196.606262 622.300720,188.862503 615.541321,181.019806 
	C602.465088,165.847778 585.956970,164.619690 571.741333,179.070129 
	C558.916504,192.106827 547.325806,206.366196 535.325562,220.203140 
	C523.409912,233.942566 511.496521,247.690186 499.882599,261.683563 
	C485.158722,279.424103 470.856995,297.514862 456.145111,315.265564 
	C446.149506,327.325745 435.605072,338.930634 425.591370,350.976288 
	C414.097748,364.802094 402.993652,378.950928 391.579895,392.844055 
	C382.840790,403.481476 373.807556,413.876953 365.043060,424.493927 
	C354.842651,436.850281 344.903656,449.423431 334.638947,461.725403 
	C327.642395,470.110687 320.060150,478.011017 313.148621,486.462494 
	C306.719086,494.324554 300.149323,502.210724 294.855133,510.831696 
	C285.699280,525.741028 298.949585,544.479492 315.394073,544.153015 
	C343.380676,543.597290 371.390900,543.703918 399.381866,544.136597 
	C411.659973,544.326416 424.124512,544.940552 436.121552,547.304749 
	C448.017487,549.649231 457.929749,556.831665 465.687103,566.343689 
	C473.921722,576.440857 479.039032,588.097595 480.844177,600.970520 
	C481.803528,607.811829 481.944336,614.808594 481.953827,621.735901 
	C482.034546,680.564148 481.561279,739.397339 482.193237,798.218933 
	C482.489624,825.803040 489.166779,852.076782 506.299652,874.554199 
	C516.172913,887.507324 528.034302,898.396667 542.686401,905.990051 
	C550.106506,909.835510 557.939026,911.980469 566.180786,913.035156 
	C576.852905,914.400818 585.353088,927.417053 581.971130,936.970337 
	C579.606445,943.649841 570.701050,948.248962 563.439087,948.173523 
	C550.715027,948.041443 538.874329,944.835327 527.928284,938.881714 
	C519.433167,934.261108 511.319458,928.776611 503.592804,922.939392 
	C486.820984,910.268494 474.926270,893.305237 464.985687,875.186707 
	C456.798859,860.264709 450.949493,844.162537 449.093170,827.049561 
	C447.904480,816.091553 447.125275,805.032349 447.089966,794.015564 
	C446.899750,734.687805 447.068787,675.359070 446.951569,616.030945 
	C446.922333,601.240723 441.191040,589.260315 427.502472,582.350952 
	C424.301178,580.735046 420.294159,580.174744 416.636139,580.092468 
	C393.715454,579.576477 370.789276,579.251831 347.863281,579.057190 
	C342.105927,579.008301 336.278778,580.371582 330.595001,579.856812 
	C317.818420,578.699524 304.782501,579.400391 292.492432,574.252258 
	C282.170135,569.928406 274.265594,563.056396 267.986633,553.993042 
	C261.530640,544.674194 259.376160,533.982910 259.134949,523.073364 
	C258.735443,505.009033 264.904724,488.995117 276.431366,475.077942 
	C287.815399,461.333008 299.121124,447.521118 310.662445,433.909210 
	C319.845978,423.078186 329.414398,412.574280 338.656677,401.792053 
	C345.046082,394.338013 351.172455,386.658447 357.413910,379.077606 
	C366.716125,367.779114 376.034882,356.494080 385.312286,345.175232 
	C395.725311,332.470856 406.043030,319.687988 416.509216,307.027802 
	C425.221497,296.489258 434.234528,286.196869 442.839081,275.572510 
	C449.214203,267.700836 455.037018,259.383728 461.332001,251.444351 
	C463.835907,248.286346 467.131775,245.766937 469.751892,242.688538 
	C478.460236,232.457016 487.120789,222.181503 495.617371,211.774048 
	C503.359436,202.290863 510.675323,192.456024 518.527649,183.067749 
	C526.002502,174.130737 533.728699,165.383255 541.707947,156.894241 
	C550.955566,147.055939 562.400818,139.979874 575.497070,137.470322 
	C599.061707,132.954773 621.451965,135.807129 638.869873,154.531357 
	C649.803162,166.284668 659.992676,178.733414 670.428223,190.945084 
	C679.480164,201.537735 688.523865,212.141373 697.362976,222.911072 
	C708.454407,236.425156 719.263855,250.170425 730.328979,263.706390 
	C737.488098,272.464172 744.954712,280.970062 752.162476,289.688843 
	C762.582764,302.293793 772.853638,315.022156 783.264709,327.634796 
	C790.360535,336.231079 797.678284,344.644897 804.730652,353.276093 
	C812.685303,363.011658 820.402344,372.941132 828.319092,382.708160 
	C834.752563,390.645355 841.304932,398.486664 847.848267,406.334137 
	C853.201416,412.754364 858.618958,419.120941 864.267334,425.764954 
z"/>
<path fill="#6BA4FC" opacity="1.000000" stroke="none" 
	d="
M551.631042,1084.211182 
	C549.910950,1088.913330 545.424805,1088.825806 540.921631,1089.311401 
	C544.114868,1087.520142 547.688171,1085.888062 551.631042,1084.211182 
z"/>
<path fill="#6BA4FC" opacity="1.000000" stroke="none" 
	d="
M852.583252,1471.941650 
	C850.784485,1476.604614 846.832764,1477.388062 842.115784,1476.449463 
	C845.403442,1474.777100 848.806030,1473.387573 852.583252,1471.941650 
z"/>
<path fill="#6BA4FC" opacity="1.000000" stroke="none" 
	d="
M539.884033,1089.712769 
	C540.660278,1093.278931 537.773743,1092.601807 535.285645,1092.961426 
	C536.461487,1091.934937 538.037537,1090.912231 539.884033,1089.712769 
z"/>
<path fill="#6BA4FC" opacity="1.000000" stroke="none" 
	d="
M722.963745,832.628357 
	C721.162659,832.237671 719.210938,831.517761 717.129639,830.482300 
	C718.937683,830.877502 720.875366,831.588318 722.963745,832.628357 
z"/>
<path fill="#6BA4FC" opacity="1.000000" stroke="none" 
	d="
M708.671387,830.998840 
	C708.055908,831.739136 707.154297,832.592712 705.895386,833.299927 
	C706.487183,832.473145 707.436279,831.792664 708.671387,830.998840 
z"/>
<path fill="#6BA4FC" opacity="1.000000" stroke="none" 
	d="
M704.902710,833.698730 
	C704.321777,834.338318 703.486511,835.148193 702.268433,835.957886 
	C702.806519,835.261414 703.727478,834.565186 704.902710,833.698730 
z"/>
<path fill="#6BA4FC" opacity="1.000000" stroke="none" 
	d="
M690.610352,1068.055542 
	C690.423950,1068.619751 689.960938,1069.283325 689.191711,1069.952148 
	C689.368164,1069.356689 689.850952,1068.755737 690.610352,1068.055542 
z"/>
<path fill="#6BA4FC" opacity="1.000000" stroke="none" 
	d="
M556.705444,1083.148926 
	C556.390747,1083.663696 555.780823,1084.160767 555.085815,1084.412231 
	C555.470642,1083.821533 555.940491,1083.476440 556.705444,1083.148926 
z"/>
<path fill="#6BA4FC" opacity="1.000000" stroke="none" 
	d="
M713.217407,829.375488 
	C713.420532,829.795227 713.388123,830.390747 713.355713,830.986267 
	C712.973206,830.880493 712.590698,830.774719 712.104187,830.417725 
	C712.327393,829.961548 712.654602,829.756409 713.217407,829.375488 
z"/>
<path fill="#6BA4FC" opacity="1.000000" stroke="none" 
	d="
M726.870605,835.729614 
	C726.616089,835.845154 726.422241,835.674622 726.135376,835.322021 
	C726.315308,835.267761 726.611572,835.368896 726.870605,835.729614 
z"/>
</svg>